<svg width="270" height="72" viewBox="0 0 270 72" fill="none" xmlns="http://www.w3.org/2000/svg">
<g clip-path="url(#clip0_501_1897)">
<path d="M56.0513 30.3158C55.0438 26.842 53.2109 23.6635 50.7089 21.0516C48.2069 18.4396 45.1101 16.4717 41.6829 15.3158C38.2969 14.3302 34.7379 14.0881 31.2496 14.6059C27.7613 15.1236 24.4261 16.3892 21.4723 18.3158C21.2293 18.5594 20.9245 18.7322 20.5907 18.8156C20.2569 18.8991 19.9067 18.89 19.5776 18.7895C18.9142 18.5746 18.3164 18.1942 17.8408 17.6843C17.4945 17.0595 17.3825 16.3316 17.525 15.6316C17.6154 15.2956 17.7743 14.982 17.9917 14.7103C18.2091 14.4386 18.4802 14.2147 18.7881 14.0527C27.1566 9.15794 35.3671 7.89478 43.2618 10.4211C47.1486 11.7139 50.6971 13.8594 53.6476 16.7007C56.5981 19.5419 58.8759 23.0069 60.3144 26.8421H70.8934C68.7302 18.3095 63.5158 10.865 56.2359 5.91637C48.9561 0.96769 40.1154 -1.14225 31.3853 -0.0145405C22.6552 1.11317 14.6409 5.40039 8.85751 12.0365C3.07413 18.6727 -0.0774402 27.1978 -0.00133884 36C-0.00133884 37.4211 0.156556 38.6843 0.156556 40.1053H13.5776C14.0902 40.0762 14.5983 40.2145 15.0255 40.4993C15.4527 40.7841 15.7757 41.1999 15.946 41.6843C16.9773 45.1461 18.8185 48.3124 21.3172 50.9209C23.8159 53.5295 26.9001 55.5051 30.3144 56.6843C33.7004 57.6698 37.2595 57.912 40.7478 57.3942C44.2361 56.8764 47.5713 55.6109 50.525 53.6843C50.768 53.4407 51.0728 53.2679 51.4066 53.1845C51.7404 53.101 52.0906 53.11 52.4197 53.2106C53.0831 53.4255 53.6809 53.8059 54.1566 54.3158C54.5028 54.9406 54.6148 55.6685 54.4723 56.3685C54.3819 56.7045 54.223 57.0181 54.0056 57.2898C53.7883 57.5615 53.5171 57.7854 53.2092 57.9474C48.4497 61.1499 42.8406 62.8547 37.1039 62.8421C34.2686 62.8208 31.4508 62.3955 28.7355 61.579C24.8324 60.3171 21.2682 58.1824 18.3135 55.3371C15.3587 52.4918 13.0911 49.0106 11.6829 45.1579H1.26182C3.54443 53.5503 8.78806 60.8326 16.0234 65.6587C23.2588 70.4848 31.9967 72.5283 40.622 71.4117C49.2472 70.295 57.1766 66.0936 62.9444 59.5841C68.7122 53.0745 71.9285 44.697 71.9986 36C72.028 34.6823 71.9753 33.3639 71.8408 32.0527H58.5776C58.0392 32.0171 57.5204 31.837 57.0758 31.5313C56.6312 31.2257 56.2773 30.8058 56.0513 30.3158Z" fill="#100A42"/>
<path d="M36.1507 51.7492C39.2591 51.7193 42.2892 50.7702 44.8593 49.0215C47.4294 47.2728 49.4245 44.8027 50.5934 41.9222C51.7623 39.0418 52.0527 35.8799 51.4279 32.8347C50.8032 29.7895 49.2914 26.9973 47.0828 24.8098C44.8742 22.6222 42.0677 21.1372 39.0167 20.5416C35.9657 19.9461 32.8067 20.2667 29.9375 21.4631C27.0684 22.6595 24.6175 24.6782 22.8935 27.2649C21.1694 29.8516 20.2494 32.8906 20.2493 35.9992C20.2492 38.0803 20.6615 40.1408 21.4625 42.0616C22.2635 43.9824 23.4371 45.7255 24.9157 47.19C26.3943 48.6545 28.1485 49.8115 30.0769 50.594C32.0053 51.3765 34.0697 51.7692 36.1507 51.7492Z" fill="white"/>
</g>
<path d="M98.451 47V24.005H103.617V47H98.451ZM83.583 47V24.005H88.749V47H83.583ZM87.8355 37.7075V33.1715H99.3645V37.7075H87.8355ZM116.4 47.5985C114.93 47.5985 113.628 47.3465 112.494 46.8425C111.381 46.3385 110.446 45.6665 109.69 44.8265C108.955 43.9655 108.388 43.01 107.989 41.96C107.611 40.889 107.422 39.797 107.422 38.684V38.054C107.422 36.899 107.611 35.7965 107.989 34.7465C108.388 33.6755 108.955 32.72 109.69 31.88C110.425 31.04 111.339 30.3785 112.431 29.8955C113.544 29.3915 114.804 29.1395 116.211 29.1395C118.059 29.1395 119.613 29.5595 120.873 30.3995C122.154 31.2185 123.13 32.3 123.802 33.644C124.474 34.967 124.81 36.416 124.81 37.991V39.692H109.533V36.8255H121.755L120.117 38.1485C120.117 37.1195 119.97 36.2375 119.676 35.5025C119.382 34.7675 118.941 34.211 118.353 33.833C117.786 33.434 117.072 33.2345 116.211 33.2345C115.329 33.2345 114.583 33.434 113.974 33.833C113.365 34.232 112.903 34.82 112.588 35.597C112.273 36.353 112.116 37.2875 112.116 38.4005C112.116 39.4295 112.263 40.3325 112.557 41.1095C112.851 41.8655 113.313 42.4535 113.943 42.8735C114.573 43.2935 115.392 43.5035 116.4 43.5035C117.324 43.5035 118.08 43.325 118.668 42.968C119.256 42.611 119.655 42.17 119.865 41.645H124.495C124.243 42.8 123.75 43.829 123.015 44.732C122.28 45.635 121.356 46.3385 120.243 46.8425C119.13 47.3465 117.849 47.5985 116.4 47.5985ZM128.371 47V24.005H133.442V47H128.371ZM126.323 27.722V24.005H133.442V27.722H126.323ZM138.086 53.3V29.738H142.087V37.2035L141.551 37.172C141.635 35.45 141.992 34.001 142.622 32.825C143.252 31.628 144.103 30.7355 145.174 30.1475C146.245 29.5385 147.452 29.234 148.796 29.234C149.993 29.234 151.075 29.4545 152.041 29.8955C153.028 30.3365 153.868 30.956 154.561 31.754C155.275 32.531 155.81 33.455 156.167 34.526C156.545 35.576 156.734 36.731 156.734 37.991V38.7155C156.734 39.9545 156.556 41.12 156.199 42.212C155.842 43.283 155.317 44.2175 154.624 45.0155C153.952 45.8135 153.122 46.4435 152.135 46.9055C151.169 47.3465 150.056 47.567 148.796 47.567C147.494 47.567 146.318 47.3045 145.268 46.7795C144.239 46.2335 143.41 45.4145 142.78 44.3225C142.15 43.2095 141.803 41.8025 141.74 40.1015L143.126 41.9915V53.3H138.086ZM147.379 43.346C148.24 43.346 148.985 43.136 149.615 42.716C150.266 42.296 150.77 41.708 151.127 40.952C151.484 40.196 151.663 39.3245 151.663 38.3375C151.663 37.3505 151.484 36.4895 151.127 35.7545C150.77 35.0195 150.277 34.4525 149.647 34.0535C149.017 33.6335 148.261 33.4235 147.379 33.4235C146.623 33.4235 145.909 33.602 145.237 33.959C144.565 34.316 144.019 34.8305 143.599 35.5025C143.2 36.1535 143 36.9515 143 37.8965V39.062C143 39.965 143.21 40.742 143.63 41.393C144.071 42.023 144.628 42.506 145.3 42.842C145.972 43.178 146.665 43.346 147.379 43.346ZM160.518 47V24.005H167.637L172.898 36.92H173.496L178.694 24.005H185.939V47H180.836V27.3755L181.56 27.4385L175.481 42.338H170.567L164.456 27.4385L165.243 27.3755V47H160.518ZM198.718 47.5985C197.248 47.5985 195.946 47.3465 194.812 46.8425C193.699 46.3385 192.765 45.6665 192.009 44.8265C191.274 43.9655 190.707 43.01 190.308 41.96C189.93 40.889 189.741 39.797 189.741 38.684V38.054C189.741 36.899 189.93 35.7965 190.308 34.7465C190.707 33.6755 191.274 32.72 192.009 31.88C192.744 31.04 193.657 30.3785 194.749 29.8955C195.862 29.3915 197.122 29.1395 198.529 29.1395C200.377 29.1395 201.931 29.5595 203.191 30.3995C204.472 31.2185 205.449 32.3 206.121 33.644C206.793 34.967 207.129 36.416 207.129 37.991V39.692H191.851V36.8255H204.073L202.435 38.1485C202.435 37.1195 202.288 36.2375 201.994 35.5025C201.7 34.7675 201.259 34.211 200.671 33.833C200.104 33.434 199.39 33.2345 198.529 33.2345C197.647 33.2345 196.902 33.434 196.293 33.833C195.684 34.232 195.222 34.82 194.907 35.597C194.592 36.353 194.434 37.2875 194.434 38.4005C194.434 39.4295 194.581 40.3325 194.875 41.1095C195.169 41.8655 195.631 42.4535 196.261 42.8735C196.891 43.2935 197.71 43.5035 198.718 43.5035C199.642 43.5035 200.398 43.325 200.986 42.968C201.574 42.611 201.973 42.17 202.183 41.645H206.814C206.562 42.8 206.068 43.829 205.333 44.732C204.598 45.635 203.674 46.3385 202.561 46.8425C201.448 47.3465 200.167 47.5985 198.718 47.5985ZM221.777 47.5985C219.698 47.5985 217.881 47.2415 216.327 46.5275C214.794 45.7925 213.524 44.837 212.516 43.661C211.508 42.464 210.752 41.1725 210.248 39.7865C209.765 38.4005 209.523 37.067 209.523 35.786V35.093C209.523 33.665 209.775 32.258 210.279 30.872C210.804 29.465 211.581 28.1945 212.61 27.0605C213.639 25.9265 214.92 25.0235 216.453 24.3515C217.986 23.6585 219.761 23.312 221.777 23.312C223.793 23.312 225.567 23.6585 227.1 24.3515C228.633 25.0235 229.914 25.9265 230.943 27.0605C231.972 28.1945 232.749 29.465 233.274 30.872C233.799 32.258 234.062 33.665 234.062 35.093V35.786C234.062 37.067 233.81 38.4005 233.306 39.7865C232.802 41.1725 232.046 42.464 231.038 43.661C230.03 44.837 228.749 45.7925 227.195 46.5275C225.662 47.2415 223.856 47.5985 221.777 47.5985ZM221.777 42.779C222.869 42.779 223.845 42.59 224.706 42.212C225.588 41.834 226.334 41.309 226.943 40.637C227.573 39.965 228.045 39.188 228.36 38.306C228.675 37.424 228.833 36.479 228.833 35.471C228.833 34.4 228.665 33.4235 228.329 32.5415C228.014 31.6385 227.541 30.8615 226.911 30.2105C226.302 29.5385 225.567 29.024 224.706 28.667C223.845 28.31 222.869 28.1315 221.777 28.1315C220.685 28.1315 219.708 28.31 218.847 28.667C217.986 29.024 217.241 29.5385 216.611 30.2105C216.002 30.8615 215.54 31.6385 215.225 32.5415C214.91 33.4235 214.752 34.4 214.752 35.471C214.752 36.479 214.91 37.424 215.225 38.306C215.54 39.188 216.002 39.965 216.611 40.637C217.241 41.309 217.986 41.834 218.847 42.212C219.708 42.59 220.685 42.779 221.777 42.779ZM243.52 47.5355C241.525 47.5355 239.992 46.895 238.921 45.614C237.85 44.312 237.315 42.359 237.315 39.755V29.738H242.355V40.007C242.355 40.931 242.617 41.666 243.142 42.212C243.667 42.758 244.371 43.031 245.253 43.031C246.156 43.031 246.891 42.7475 247.458 42.1805C248.025 41.6135 248.308 40.847 248.308 39.881V29.738H253.348V47H249.348V39.7235H249.694C249.694 41.4665 249.463 42.926 249.001 44.102C248.56 45.257 247.899 46.118 247.017 46.685C246.135 47.252 245.043 47.5355 243.741 47.5355H243.52ZM265.839 47.2205C264.096 47.2205 262.689 47.0105 261.618 46.5905C260.547 46.1495 259.759 45.425 259.255 44.417C258.772 43.388 258.531 42.002 258.531 40.259V25.076H263.224V40.448C263.224 41.267 263.434 41.897 263.854 42.338C264.295 42.758 264.915 42.968 265.713 42.968H268.264V47.2205H265.839ZM255.916 33.4235V29.738H268.264V33.4235H255.916Z" fill="#100A42"/>
<defs>
<clipPath id="clip0_501_1897">
<rect width="72" height="72" fill="white"/>
</clipPath>
</defs>
</svg>
